<svg>
  <symbol xmlns="http://www.w3.org/2000/svg" id="navbar-brand">
    <path fill="none" d="M0 0h256v256H0z"></path>
    <path d="M45.23 134.05c-13.38 2.68-33.45 20.08-33.45 20.08A197.59 197.59 0 0 1 .4 74.5l12 6.69s2.67-42.82 36.13-54.86A49.78 49.78 0 0 0 43.9 34a51.41 51.41 0 0 0-4.69 15.06c15.44-15 55.07-45.63 107.06-46.84C203.81.9 256 33 256 33s-34.79 4-40.15 37.47c0 0 10.71 5.35 22.75-8 0 0 8 13.38 0 45.5 0 0 5.36 2.67 12.05-5.35 0 0 6.69 25.42-14.72 52.19 0 0-12.05-20.08-25.43-22.75 0 0 8-1.34 12.05 0 0 0-12.05-16.06-17.4-16.06 0 0 9.37-1.34 12 0 0 0-8-20.08-68.25-26.77v16.06s-6.69-1.34-18.73-10.7c0 0 2.68 12 10.71 16 0 0-22.75 1.34-40.15-20.07 0 0-45.5-2.67-66.91 25.43 0 0 13.38 1.34 16.06 4 0 0-13.38 4-14.72 6.69z"></path>
    <path d="M13.79 145.43s-9.37-41.49 54.86-64.24c0 0-22.75 0-28.1 2.68 0 0 20.07-24.09 87-26.76 0 0-8-10.71-50.85-5.36 0 0 48.18-53.52 164.6-21.41 0 0-108.39-64.23-203.41 28.11 0 0-5.35-10.71 0-20.08 0 0-20.07 13.38-22.75 52.19L4.42 81.19s1.34 54.87 9.37 64.24z" fill="#95b4c7"></path>
    <path d="M242.35 168.07a252.25 252.25 0 0 0-48.51-2.26c-21.25 1.15-36.72 7.12-46 10.7-2.09.8-3.88 1.49-5.23 1.94a84.89 84.89 0 0 1-14.64 3 84 84 0 0 1-14.64-3c-1.35-.45-3.16-1.14-5.25-1.94-9.23-3.58-24.7-9.55-45.95-10.7a250.66 250.66 0 0 0-48.51 2.26 6 6 0 0 0 .76 12 6.42 6.42 0 0 0 1.15-.19l.47-.06c-.28 8.33 0 22.33 3.62 35.41C25 234.29 35.1 253.8 69.88 253.8c31.24 0 41.63-16.63 47.84-26.58.39-.63.77-1.23 1.13-1.79 6.65-10.4 6.63-19.73 6.61-20.76a6 6 0 0 0-5.85-5.83v-6.6c3.92.73 7 1 7.68 1.13h1.41c.71-.08 3.77-.4 7.69-1.13v6.6a6 6 0 0 0-5.86 5.83c0 1 0 10.36 6.62 20.75l1.13 1.8c6.21 9.95 16.6 26.58 47.82 26.58 34.8 0 44.93-19.51 50.24-38.59 3.65-13.08 3.91-27.08 3.61-35.41l.49.06a6 6 0 1 0 3.06-11.6 5.64 5.64 0 0 0-1.15-.19zM108.78 219c-.38.6-.79 1.24-1.2 1.9-5.53 8.85-13.09 21-37.7 21-25.3 0-33.57-11.43-38.71-29.86-3.48-12.48-3.44-26.41-3.11-33.57a241 241 0 0 1 33.45-.68c19.36 1 33.72 6.61 42.31 9.91 1.39.55 2.66 1 3.84 1.46V199a11.76 11.76 0 0 0 5.33 9.85 30.69 30.69 0 0 1-4.21 10.15zm116.05-7c-5.14 18.43-13.41 29.86-38.73 29.86-24.59 0-32.15-12.11-37.68-21-.41-.66-.82-1.3-1.2-1.9a30.75 30.75 0 0 1-4.22-10.1 11.76 11.76 0 0 0 5.33-9.85v-9.9c1.16-.43 2.45-.92 3.84-1.46 8.58-3.3 23-8.86 42.31-9.91a240.65 240.65 0 0 1 33.43.68c.35 7.16.4 21.09-3.08 33.58z"></path>
    <path d="M77.61 225.4l3.19-3.4a1 1 0 0 0-.06-1.35l-12.43-11 12.43-11a.94.94 0 0 0 .07-1.33l-3.19-3.4a.94.94 0 0 0-1.32 0L60.15 209a.93.93 0 0 0-.06 1.31l.06.06 16.14 15.12a.93.93 0 0 0 1.31-.08zm92.55 3.13l-4.51-1.31a.87.87 0 0 1-.6-1.09l10.09-34.76a.9.9 0 0 1 1.1-.61l4.51 1.31a.9.9 0 0 1 .61 1.1l-10.09 34.77a.89.89 0 0 1-1.11.6zm19.49-3.08l16.12-15.11a.93.93 0 0 0 .06-1.31l-.06-.06-16.12-15.13a.93.93 0 0 0-1.32 0l-3.19 3.4a1 1 0 0 0 .06 1.35l12.42 11-12.42 11a.94.94 0 0 0-.08 1.33l3.19 3.39a.93.93 0 0 0 1.32 0zM287.1 42.6h57.6v10.8h-57.6zm22.5 17h12.5v54.1h-12.5zm41.7-17.3h11.4v26.5h.2q4.89-8.2 15.5-8.2 8.6 0 13.4 4.4 4.89 4.6 4.9 13.2v35.5h-11.4V81.2q-.41-11.6-10.1-11.6a11.64 11.64 0 0 0-9.1 3.9 14.21 14.21 0 0 0-3.4 9.7v30.5h-11.4zm103.6 55a20.28 20.28 0 0 1-8.4 13 24.57 24.57 0 0 1-14.9 4.6q-12 0-18.8-7.6-6.51-7.3-6.5-19.6a38.87 38.87 0 0 1 .3-4.6h11.1v.1h26.5a16.21 16.21 0 0 0-3.7-9.6 11.91 11.91 0 0 0-9.2-4.1q-8.61 0-12.2 7.6h-11a24.93 24.93 0 0 1 8.6-11.9 23.5 23.5 0 0 1 14.6-4.7 22.61 22.61 0 0 1 18.9 9.3q6.9 8.9 5.4 20.8h-37.9q0 6.6 3.4 10.7 3.69 4.61 10.5 4.6 9.5 0 12.5-8.6zm-99 136.4h-8l-1.9-8.4q-8.89 10.09-21.5 10.1-15.5 0-25.1-11-9.11-10.5-9.1-26.4t9.1-26.3q9.6-11.1 25.1-11.1 12.11 0 20.4 6.2 8.81 6.6 10.2 18.2h-12.2a15 15 0 0 0-6.3-10.6 20.16 20.16 0 0 0-12.1-3.6q-10.69 0-16.6 8.5-5.1 7.39-5.1 18.7t5.1 18.7q5.89 8.51 16.6 8.5 9.5.2 14.7-5.2 5.1-5.1 5.3-14.4h-19v-9.5h30.4zm58.2-16.4a20.28 20.28 0 0 1-8.4 13 24.57 24.57 0 0 1-14.9 4.6q-12 0-18.8-7.6-6.51-7.31-6.5-19.6a38.87 38.87 0 0 1 .3-4.6h11.1v.1h26.5a16.21 16.21 0 0 0-3.7-9.6 11.91 11.91 0 0 0-9.2-4.1q-8.61 0-12.2 7.6h-11a24.93 24.93 0 0 1 8.6-11.9 23.5 23.5 0 0 1 14.6-4.7 22.61 22.61 0 0 1 18.9 9.3q6.9 8.89 5.4 20.8h-37.9q0 6.6 3.4 10.7 3.69 4.6 10.5 4.6 9.49 0 12.5-8.6zm55.6 0a20.28 20.28 0 0 1-8.4 13 24.57 24.57 0 0 1-14.9 4.6q-12 0-18.8-7.6-6.51-7.31-6.5-19.6a38.87 38.87 0 0 1 .3-4.6h11.1v.1H459a16.21 16.21 0 0 0-3.7-9.6 11.91 11.91 0 0 0-9.2-4.1q-8.61 0-12.2 7.6h-11a24.93 24.93 0 0 1 8.6-11.9 23.5 23.5 0 0 1 14.6-4.7 22.61 22.61 0 0 1 18.9 9.3q6.9 8.89 5.4 20.8h-37.9q0 6.6 3.4 10.7 3.69 4.6 10.5 4.6 9.5 0 12.5-8.6zm9.7-55h11.4v40.6l20.6-20.9h14l-19.8 19 21.7 32.7h-13.9l-15.8-25.1-6.8 6.6v18.5h-11.4zm47.7 19.7h12.5l13.5 38.6h.2l13.1-38.6h11.9l-20.1 54.5q-3.81 9.5-6 12.3-4.31 5.4-12.3 5.4a51.85 51.85 0 0 1-7.9-.6V244a50.68 50.68 0 0 0 5.4.7q5.9 0 8-7.2l1.3-4zm80.5-19.4h57.6v10.8h-57.6zm22.5 17h12.5v54.1h-12.5zm77.9 54.1h-11.2v-7.2h-.2q-4.61 8.59-14.7 8.6-19.3 0-19.3-20.3V182H674v31.7q0 12.41 9.9 12.4 12.71 0 12.7-14.1v-30H708zm6.8-51.7h8.6v-15.5h11.4V182h10.3v8.5h-10.3v27.6c0 2.67.26 4.43.8 5.3q1.1 1.8 4.7 1.8a21.17 21.17 0 0 0 4.8-.4v8.8a69 69 0 0 1-7.4.6q-8.4 0-11.5-3.4-2.61-2.7-2.8-9.8v-30.5h-8.6zm74.5 36.4a22.6 22.6 0 0 0 2.4-10.6 21.12 21.12 0 0 0-3.5-12.4 13.71 13.71 0 0 0-22.4 0 21 21 0 0 0-3.5 12.4q0 7.5 3.5 12.5a12.82 12.82 0 0 0 11.2 5.8 13.31 13.31 0 0 0 8.6-2.9l7.2 7.2a26.28 26.28 0 0 1-15.8 4.7q-12.11 0-19.2-7.7-6.9-7.4-6.9-19.6 0-12 6.9-19.5 7.1-7.7 19.2-7.7t19.2 7.7q6.9 7.5 6.9 19.5 0 11.2-5.9 18.5zm23.3-36.4h10.7v10h.2q1-4.31 5.5-7.8a15.35 15.35 0 0 1 9.6-3.6c.66 0 2.1.1 4.3.3v11a27.49 27.49 0 0 0-4.9-.5 12.53 12.53 0 0 0-9.9 4.5q-4.11 4.9-4.1 13.2v24.6h-11.4z"></path>
  </symbol>
  <symbol xmlns="http://www.w3.org/2000/svg" id="close-menu">
    <path d="M248,0C111,0,0,111,0,248S111,496,248,496,496,385,496,248,385,0,248,0Zm0,464C129.3,464,32,367.9,32,248,32,129.3,128.1,32,248,32c118.7,0,216,96.1,216,216C464,366.7,367.9,464,248,464Z" fill="#fff"/>
    <path d="M342.8,178.7,273.5,248l69.3,69.3a12,12,0,0,1,0,17l-8.5,8.5a12,12,0,0,1-17,0L248,273.5l-69.3,69.3a12,12,0,0,1-17,0l-8.5-8.5a12,12,0,0,1,0-17L222.5,248l-69.3-69.3a12,12,0,0,1,0-17l8.5-8.5a12,12,0,0,1,17,0L248,222.5l69.3-69.3a12,12,0,0,1,17,0l8.5,8.5a12.2,12.2,0,0,1,0,17Z" fill="#fff"/>
  </symbol>

  <!-- Icons made by <a href="https://www.flaticon.com/authors/freepik" title="Freepik">Freepik</a> from <a href="https://www.flaticon.com/" title="Flaticon"> www.flaticon.com</a> -->
  <symbol xmlns="http://www.w3.org/2000/svg" id="home-icon">
  <path d="M498.23,222.7l0,0L289.33,13.81a47.13,47.13,0,0,0-66.66,0L13.92,222.55l-.21.22a47.11,47.11,0,0,0,31.37,80.3,14.08,14.08,0,0,0,1.45.07h8.32v153.7A55.23,55.23,0,0,0,110,512h81.71a15,15,0,0,0,15-15V376.5a25.21,25.21,0,0,1,25.18-25.17H280.1a25.2,25.2,0,0,1,25.17,25.17V497a15,15,0,0,0,15,15H402a55.23,55.23,0,0,0,55.17-55.16V303.14h7.72a47.14,47.14,0,0,0,33.36-80.44ZM477,268.12a17,17,0,0,1-12.11,5H442.15a15,15,0,0,0-15,15v168.7A25.19,25.19,0,0,1,402,482H335.27V376.5a55.23,55.23,0,0,0-55.17-55.17H231.91a55.24,55.24,0,0,0-55.18,55.17V482H110a25.2,25.2,0,0,1-25.17-25.16V288.14a15,15,0,0,0-15-15H47.53c-.24,0-.47,0-.71,0A17.12,17.12,0,0,1,35,243.88h0L243.89,35a17.13,17.13,0,0,1,24.23,0l208.8,208.8.09.09A17.17,17.17,0,0,1,477,268.12Z" transform="translate(-0.03)"/>
  </symbol>
  
  <symbol xmlns="http://www.w3.org/2000/svg" id="howtos-icon">
    <!-- <path d="M336,64H247.4a52.87,52.87,0,0,0,.6-8,56,56,0,0,0-112,0,52.87,52.87,0,0,0,.6,8H48A48,48,0,0,0,0,112V464a48,48,0,0,0,48,48H336a48,48,0,0,0,48-48V112A48,48,0,0,0,336,64ZM192,32a24,24,0,1,1-24,24A23.94,23.94,0,0,1,192,32ZM352,464a16,16,0,0,1-16,16H48a16,16,0,0,1-16-16V112A16,16,0,0,1,48,96H96v20a12,12,0,0,0,12,12H276a12,12,0,0,0,12-12V96h48a16,16,0,0,1,16,16ZM293.1,227.6a12.1,12.1,0,0,0-17-.1L158.4,344.3,108,293.7a12,12,0,0,0-17,0l-8.5,8.5a12,12,0,0,0,0,17l67.4,67.6a12,12,0,0,0,17,0L301.7,253.1a12.1,12.1,0,0,0,.1-17l-8.7-8.5Z"/> -->
  </symbol>
  <symbol xmlns="http://www.w3.org/2000/svg" viewBox="0 0 30 30" id="coding-icon">
  <path d="M23.24,20.75a.88.88,0,0,1-.6-1.52h0L27.88,14,22.65,8.77a.88.88,0,0,1,1.18-1.31l.06.06,5.85,5.85a.86.86,0,0,1,0,1.24l-5.85,5.86-.05.05A.87.87,0,0,1,23.24,20.75Zm-.56-12Zm0,0Z" transform="translate(0 -3.08)"/><path d="M6.75,20.75a.9.9,0,0,1-.58-.21l-.06-.06L.26,14.63a.86.86,0,0,1,0-1.24L6.11,7.53l0,0a.89.89,0,0,1,1.25,0,.87.87,0,0,1,0,1.24h0L2.12,14l5.23,5.22a.89.89,0,0,1,.06,1.22A.87.87,0,0,1,6.75,20.75Zm.57-1.54Zm0,0Z" transform="translate(0 -3.08)"/><path d="M11.34,24.92a.79.79,0,0,1-.3-.05.88.88,0,0,1-.52-1.13L17.83,3.66a.88.88,0,1,1,1.65.6L12.17,24.34A.88.88,0,0,1,11.34,24.92Z" transform="translate(0 -3.08)"/>
    <!-- <path d="M228.5,511.8l-25-7.1a6,6,0,0,1-4.1-7.4L340.1,4.4A6,6,0,0,1,347.5.3l25,7.1a6,6,0,0,1,4.1,7.4L235.9,507.6a6.06,6.06,0,0,1-7.4,4.2ZM152.9,386.5l18.5-20.9a5,5,0,0,0-.5-7.1L49.9,256l121-102.5a5,5,0,0,0,.5-7.1l-18.5-20.9a5,5,0,0,0-7.1-.4L1.7,252.3a4.94,4.94,0,0,0,0,7.5L145.8,387a5.05,5.05,0,0,0,7.1-.5Zm277.3.4L574.3,259.7a4.94,4.94,0,0,0,0-7.5L430.2,125.1a5.14,5.14,0,0,0-7.1.4l-18.5,20.9a5,5,0,0,0,.5,7.1L526.1,256l-121,102.5a5,5,0,0,0-.5,7.1l18.5,20.9A5,5,0,0,0,430.2,386.9Z" transform="translate(0.02 -0.07)"/> -->
  </symbol>
</svg>