<svg xmlns="http://www.w3.org/2000/svg" viewBox="0 0 56 56"><circle cx="28" cy="28" r="28" fill="#181616"/><path d="M28,13a15.38,15.38,0,0,0-4.86,30c.77.14,1.05-.33,1.05-.74s0-1.33,0-2.61c-4.28.93-5.18-2.07-5.18-2.07a4.05,4.05,0,0,0-1.71-2.24c-1.4-1,.1-.94.1-.94A3.23,3.23,0,0,1,19.74,36a3.27,3.27,0,0,0,4.48,1.27,3.26,3.26,0,0,1,1-2c-3.41-.39-7-1.71-7-7.6a6,6,0,0,1,1.58-4.13,5.5,5.5,0,0,1,.15-4.07S21.21,19,24.15,21a14.51,14.51,0,0,1,7.7,0c2.94-2,4.23-1.58,4.23-1.58a5.5,5.5,0,0,1,.15,4.07,5.91,5.91,0,0,1,1.58,4.13c0,5.9-3.6,7.2-7,7.58a3.7,3.7,0,0,1,1,2.85c0,2.06,0,3.72,0,4.22s.28.89,1.06.74A15.38,15.38,0,0,0,28,13Z" fill="#fff" fill-rule="evenodd"/></svg>