<svg xmlns="http://www.w3.org/2000/svg" xmlns:xlink="http://www.w3.org/1999/xlink" viewBox="0 0 56 56"><defs><linearGradient id="a" x1="28" y1="55.84" x2="28" y2="0.43" gradientUnits="userSpaceOnUse"><stop offset="0" stop-color="#e09b3d"/><stop offset="0.3" stop-color="#c74c4d"/><stop offset="0.6" stop-color="#c21975"/><stop offset="1" stop-color="#7024c4"/></linearGradient></defs><title>instagram-color</title><circle cx="28" cy="28" r="28" fill="url(#a)"/><path d="M28,20.27A7.69,7.69,0,1,0,35.68,28,7.69,7.69,0,0,0,28,20.27ZM28,33a5,5,0,1,1,5-5,5,5,0,0,1-5,5Z" fill="#fff"/><circle cx="35.98" cy="19.99" r="1.79" fill="#fff"/><path d="M42.18,18.17a7.63,7.63,0,0,0-4.37-4.38,11.09,11.09,0,0,0-3.64-.7C32.57,13,32.06,13,28,13s-4.58,0-6.17.09a11.09,11.09,0,0,0-3.64.7,7.63,7.63,0,0,0-4.37,4.38,10.74,10.74,0,0,0-.7,3.63C13.05,23.41,13,23.91,13,28s0,4.58.09,6.17a10.75,10.75,0,0,0,.7,3.64,7.63,7.63,0,0,0,4.37,4.38,11,11,0,0,0,3.64.75c1.6.07,2.11.09,6.17.09s4.58,0,6.17-.09a11.09,11.09,0,0,0,3.64-.7,7.63,7.63,0,0,0,4.37-4.38,10.74,10.74,0,0,0,.7-3.63C43,32.59,43,32.09,43,28s0-4.58-.09-6.17A10.79,10.79,0,0,0,42.18,18.17ZM40.16,34a8.42,8.42,0,0,1-.52,2.81,5,5,0,0,1-2.85,2.85,8.14,8.14,0,0,1-2.77.51c-1.58.07-2,.09-6.08.09s-4.47,0-6.08-.09a8.24,8.24,0,0,1-2.78-.51,4.94,4.94,0,0,1-2.85-2.85,8.25,8.25,0,0,1-.52-2.78c-.07-1.58-.09-2-.09-6.08s0-4.46.09-6.07a8.18,8.18,0,0,1,.52-2.81,4.94,4.94,0,0,1,2.85-2.85,8.24,8.24,0,0,1,2.78-.51c1.58-.08,2-.1,6.08-.1s4.47,0,6.08.1a8.14,8.14,0,0,1,2.77.51,5,5,0,0,1,2.85,2.85,8.25,8.25,0,0,1,.52,2.78c.07,1.58.09,2,.09,6.07s0,4.49-.07,6.08Z" fill="#fff"/></svg>