<svg xmlns="http://www.w3.org/2000/svg" viewBox="0 0 56 56"><title>pinterest-color</title><circle cx="28" cy="28" r="27.5" fill="#c92128"/><path d="M28,1A27,27,0,1,1,1,28,27,27,0,0,1,28,1m0-1A28,28,0,1,0,56,28,28,28,0,0,0,28,0Z" transform="translate(0 0)" fill="#c92228"/><path d="M28.71,13C20.52,13,16.4,18.87,16.4,23.76c0,3,1.12,5.6,3.52,6.58a.59.59,0,0,0,.8-.25h0a.49.49,0,0,0,.06-.17c.08-.3.27-1.07.35-1.39a.82.82,0,0,0-.25-1,5,5,0,0,1-1.14-3.38,8.18,8.18,0,0,1,8.07-8.27h.42c4.62,0,7.16,2.83,7.16,6.61,0,5-2.19,9.16-5.46,9.16a2.67,2.67,0,0,1-2.8-2.54,3,3,0,0,1,.08-.78c.52-2.18,1.52-4.54,1.52-6.12a2.3,2.3,0,0,0-2-2.56,1.72,1.72,0,0,0-.32,0c-1.84,0-3.32,1.9-3.32,4.46a6.52,6.52,0,0,0,.55,2.72l-2.22,9.39a19.21,19.21,0,0,0-.05,6.55.24.24,0,0,0,.27.19.19.19,0,0,0,.14-.09,18.21,18.21,0,0,0,3.11-5.64c.21-.77,1.21-4.73,1.21-4.73a4.93,4.93,0,0,0,4.21,2.14c5.55,0,9.29-5.05,9.29-11.8C39.61,17.76,35.28,13,28.71,13Z" transform="translate(0 0)" fill="#fff"/></svg>