<svg xmlns="http://www.w3.org/2000/svg" viewBox="0 0 56 56"><title>pinterest-color</title><circle cx="28" cy="28" r="28" fill="#c92228"/><path d="M28.71,13C20.52,13,16.4,18.87,16.4,23.76c0,3,1.12,5.6,3.52,6.58a.59.59,0,0,0,.8-.25.58.58,0,0,0,.06-.17c.08-.3.27-1.07.35-1.39a.83.83,0,0,0-.25-1,5,5,0,0,1-1.14-3.38,8.17,8.17,0,0,1,8.49-8.26c4.62,0,7.16,2.83,7.16,6.61,0,5-2.19,9.16-5.46,9.16a2.67,2.67,0,0,1-2.72-3.32c.52-2.18,1.52-4.54,1.52-6.12a2.3,2.3,0,0,0-2.32-2.58c-1.84,0-3.32,1.9-3.32,4.46a6.52,6.52,0,0,0,.55,2.72l-2.22,9.39a19.22,19.22,0,0,0-.05,6.55.24.24,0,0,0,.27.19.24.24,0,0,0,.14-.09,18.29,18.29,0,0,0,3.11-5.64c.21-.77,1.21-4.73,1.21-4.73a4.94,4.94,0,0,0,4.21,2.14c5.55,0,9.29-5.05,9.29-11.8C39.61,17.76,35.28,13,28.71,13Z" fill="#fff"/></svg>